<?xml version="1.0" encoding="UTF-8"?>
<svg width="245px" height="318px" viewBox="0 0 245 318" version="1.1" xmlns="http://www.w3.org/2000/svg" xmlns:xlink="http://www.w3.org/1999/xlink">
    <!-- Generator: Sketch 56.3 (81716) - https://sketch.com -->
    <title>Version 1</title>
    <desc>Created with Sketch.</desc>
    <g id="Page-1" stroke="none" stroke-width="1" fill="none" fill-rule="evenodd">
        <g id="Artboard" transform="translate(-21.000000, -25.000000)">
            <g id="Version-1" transform="translate(21.000000, 14.000000)">
                <g id="hands-heart-regular" transform="translate(0.000000, 58.000000)" fill-rule="nonzero">
                    <path d="M114.449284,96.5223915 C116.850617,99.0613978 119.709347,99.9988771 122.529961,99.9988771 C125.312459,100.037939 128.209306,99.0613978 130.610639,96.5223915 L168.231531,56.6795231 C179.704568,44.5313544 182.105902,21.4849894 165.944546,7.34467729 C151.307847,-5.46753921 131.98283,0.39170614 122.529961,10.3914849 C113.077093,0.39170614 93.7520758,-5.46753921 79.1534928,7.34467729 C62.9921372,21.4849894 65.3934707,44.5313544 76.8665086,56.6795231 L114.449284,96.5223915 Z" id="Path" fill="#151516"></path>
                    <path d="M90.3347192,21.9410659 C95.6933281,17.2985041 104.054278,18.4591445 109.070848,23.7594026 L122.068325,37.416272 L135.027797,23.7207146 C140.044367,18.4204565 148.443321,17.2598161 153.763926,21.9023779 C160.946742,28.1311484 159.730604,38.3060964 154.790042,43.5289784 L122.068325,78 L89.346607,43.5289784 C84.3680414,38.3447844 83.1899075,28.1698364 90.3347192,21.9410659 Z" id="Path" fill="#EE1818"></path>
                    <path d="M218.489299,38.0640728 C202.509718,36.9738574 189.16162,49.9396337 189.16162,66.0203112 C189.16162,66.0203112 189.123483,81.2054547 189.085345,95.6118728 C177.720393,87.9024923 161.435713,89.5767517 152.168319,101.841675 L124.785649,138.169211 C123.755939,139.53198 122.878778,141.050494 122.039755,142.530072 C121.162594,141.050494 120.323571,139.53198 119.29386,138.169211 L91.9111903,101.841675 C82.5293842,89.4210067 66.206567,88.0193011 54.9941645,95.6118728 C54.9560271,81.1665184 54.9178897,66.0203112 54.9178897,66.0203112 C54.9178897,49.9396337 41.5697915,36.9738574 25.5902111,38.0640728 C10.9835779,39.0374794 0,52.0811283 0,66.9937179 L0,141.556666 C0,151.407541 3.31795583,161.102671 9.34366873,168.812052 L31.7303363,197.624888 C32.874459,199.104466 34.6669179,200 36.4975142,200 L42.7139142,200 C46.0700074,200 48.8159019,197.196589 48.8159019,193.770198 C48.8159019,190.849978 47.8243289,188.00763 46.0700074,185.749327 L23.6452025,157.131172 C20.174697,152.731374 18.3059632,147.241361 18.3059632,141.556666 L18.3059632,66.3707376 C18.3059632,61.8541309 21.2806822,57.6879505 25.6283485,56.8702889 C31.4633743,55.7022009 36.6119264,60.257744 36.6119264,66.0203112 C36.6119264,66.0203112 36.6882013,105.345939 36.7263387,117.649799 C36.7263387,120.608955 37.7941866,123.412366 39.7010577,125.67067 L68.8761866,161.725651 C75.6265106,170.058012 88.7839216,160.440754 81.8047732,150.745624 L62.9267486,124.658327 C59.8376173,120.570019 60.6003658,114.690643 64.6047952,111.536805 C68.7236369,108.266159 74.4442504,109.278502 77.4571069,113.250001 L104.801639,149.5386 C108.081458,153.899462 109.873917,159.23373 109.873917,164.723744 L109.873917,193.731261 C109.873917,197.157653 112.619811,199.961064 115.975905,199.961064 L128.17988,199.961064 C131.535973,199.961064 134.281868,197.157653 134.281868,193.731261 L134.281868,164.76268 C134.281868,159.272667 136.074327,153.938398 139.354145,149.577536 L166.698678,113.288937 C169.711534,109.317438 175.432148,108.344032 179.550989,111.575742 C183.555419,114.729579 184.318167,120.570019 181.229036,124.697263 L162.351011,150.784561 C155.333725,160.479691 168.529274,170.096948 175.279598,161.764588 L204.454727,125.709606 C206.361598,123.451302 207.391308,120.647891 207.429446,117.688735 C207.391308,105.345939 207.467583,66.0203112 207.467583,66.0203112 C207.467583,60.257744 212.577998,55.7022009 218.451161,56.8702889 C222.798827,57.7268867 225.773546,61.8541309 225.773546,66.3707376 L225.773546,141.556666 C225.773546,147.202424 223.904813,152.692438 220.434307,157.092236 L198.04764,185.671454 C196.255181,187.968694 195.301745,190.772105 195.301745,193.692325 C195.301745,197.118716 198.04764,199.922127 201.403733,199.922127 L207.620133,199.922127 C209.488867,199.922127 211.243188,199.06553 212.387311,197.547015 L234.773978,168.734179 C240.799691,161.024798 244.117647,151.368605 244.117647,141.478793 L244.117647,66.9937179 C244.07951,52.0811283 233.095932,39.0374794 218.489299,38.0640728 L218.489299,38.0640728 Z" id="Path" fill="#151516"></path>
                </g>
                <text id="MENDING" font-family="Inter-Black, Inter" font-size="46" font-weight="700" letter-spacing="2.5875" fill="#151516">
                    <tspan x="3.16464461" y="45">MENDING</tspan>
                </text>
                <text id="SOUL" font-family="Inter-Black, Inter" font-size="70" font-weight="700" letter-spacing="13.6111111" fill="#151516">
                    <tspan x="1.37863005" y="328">SOUL</tspan>
                </text>
            </g>
        </g>
    </g>
</svg>