<svg width="250" height="209" viewBox="0 0 250 209" fill="none" xmlns="http://www.w3.org/2000/svg">
<rect width="250" height="209" fill="white"/>
<path d="M117.207 100.544C119.666 103.189 122.594 104.165 125.482 104.165C128.332 104.206 131.299 103.189 133.758 100.544L172.285 59.0412C184.035 46.3868 186.494 22.3802 169.943 7.65071C154.954 -5.69535 135.163 0.408028 125.482 10.8245C115.802 0.408028 96.0112 -5.69535 81.0608 7.65071C64.51 22.3802 66.9692 46.3868 78.7187 59.0412L117.207 100.544Z" fill="#151516"/>
<path d="M92.5114 22.8553C97.9992 18.0193 106.562 19.2283 111.699 24.7494L125.01 38.9753L138.281 24.7091C143.419 19.188 152.02 17.979 157.469 22.815C164.825 29.3033 163.58 39.9022 158.52 45.3427L125.01 81.25L91.4995 45.3427C86.401 39.9425 85.1945 29.3436 92.5114 22.8553Z" fill="#EE1818"/>
<path d="M223.754 39.6501C207.389 38.5144 193.72 52.0204 193.72 68.7712C193.72 68.7712 193.681 84.589 193.642 99.5957C182.003 91.5651 165.326 93.3091 155.835 106.085L127.793 143.926C126.738 145.346 125.84 146.928 124.98 148.469C124.082 146.928 123.223 145.346 122.168 143.926L94.1259 106.085C84.518 93.1469 67.8019 91.6868 56.3193 99.5957C56.2803 84.5485 56.2412 68.7712 56.2412 68.7712C56.2412 52.0204 42.5715 38.5144 26.2068 39.6501C11.2482 40.664 0 54.2512 0 69.7851V147.455C0 157.716 3.39791 167.815 9.56882 175.846L32.4949 205.859C33.6666 207.4 35.5023 208.333 37.377 208.333H43.7432C47.1801 208.333 49.9922 205.413 49.9922 201.844C49.9922 198.802 48.9767 195.841 47.1801 193.489L24.215 163.678C20.6608 159.095 18.7471 153.376 18.7471 147.455V69.1362C18.7471 64.4314 21.7935 60.0916 26.2459 59.2399C32.2215 58.0231 37.4941 62.7685 37.4941 68.7712C37.4941 68.7712 37.5723 109.735 37.6113 122.552C37.6113 125.634 38.7049 128.555 40.6577 130.907L70.5359 168.464C77.4488 177.144 90.9233 167.126 83.776 157.027L64.4431 129.852C61.2795 125.594 62.0606 119.469 66.1615 116.184C70.3796 112.777 76.2381 113.832 79.3235 117.969L107.327 155.769C110.686 160.312 112.521 165.868 112.521 171.587V201.803C112.521 205.373 115.334 208.293 118.771 208.293H131.269C134.706 208.293 137.518 205.373 137.518 201.803V171.628C137.518 165.909 139.353 160.352 142.712 155.81L170.716 118.009C173.801 113.872 179.659 112.858 183.878 116.225C187.978 119.51 188.76 125.594 185.596 129.893L166.263 157.067C159.077 167.166 172.59 177.184 179.503 168.505L209.381 130.948C211.334 128.595 212.389 125.675 212.428 122.592C212.389 109.735 212.467 68.7712 212.467 68.7712C212.467 62.7685 217.7 58.0231 223.715 59.2399C228.167 60.1322 231.214 64.4314 231.214 69.1362V147.455C231.214 153.336 229.3 159.055 225.746 163.638L202.82 193.408C200.984 195.801 200.008 198.721 200.008 201.763C200.008 205.332 202.82 208.252 206.257 208.252H212.623C214.537 208.252 216.333 207.36 217.505 205.778L240.431 175.765C246.602 167.734 250 157.676 250 147.374V69.7851C249.961 54.2512 238.713 40.664 223.754 39.6501V39.6501Z" fill="#151516"/>
</svg>
